# xmcd
#
# Track frame offsets:
#	150
#	5136
#	20160
#	36874
#	53510
#	70059
#	85829
#	100026
#	116744
#	133244
#	146523
#	162610
#	179006
#	194722
#	209329
#	225237
#
# Disc length: 3178
#
# Revision: 1
# Processed by: cddbd v1.5.1PL0 Copyright (c) Steve Scherf et al.
# Submitted via: CDex 1.51
# Normalized: r0:TDELIM( - ),TSWAP
#
DISCID=e80c6810
DTITLE=52nd Street - Jazz erlebt - In Wort Und Musik
DYEAR=1900
DGENRE=Jazz
TTITLE0=Count Basie - One O'Clock Jump
TTITLE1=Count Basie - King Porter Stump
TTITLE2=Delta Four - Swingin' On The Famous Door
TTITLE3=Teddy Wilson - Sweet Lorraine
TTITLE4=Louis Prima - Chasing Shadows
TTITLE5=Red McKenzie and Bunny Berigan - I Can't Get Started
TTITLE6=Joe Marsala - Jazz Me Blues
TTITLE7=Wingy Manone - Swingin' At The Hickory House
TTITLE8=Wingy Manone - The Music Goes 'Round And Around
TTITLE9=Hot Lips Page - He's Pulling His Whiskers
TTITLE10=Frank Newton - Rosetta
TTITLE11=Art Tatum - I Ain't Got Nobody
TTITLE12=Stuff Smith - Onyx Club Spree
TTITLE13=Maxine Sullivan and John Kirby - Loch Lomond
TTITLE14=Billie Holiday - A Fine Romance
TTITLE15=Fats Waller - Two Sleepy People
EXTD=
EXTT0=
EXTT1=
EXTT2=
EXTT3=
EXTT4=
EXTT5=
EXTT6=
EXTT7=
EXTT8=
EXTT9=
EXTT10=
EXTT11=
EXTT12=
EXTT13=
EXTT14=
EXTT15=
PLAYORDER=
